<svg xmlns="http://www.w3.org/2000/svg" viewBox="0 0 512 512" width="512" height="512">
  <defs>
    <linearGradient id="bgGrad" x1="0%" y1="0%" x2="100%" y2="100%">
      <stop offset="0%" stop-color="#10b981" />
      <stop offset="100%" stop-color="#047857" />
    </linearGradient>
    <radialGradient id="ballGrad" cx="35%" cy="35%" r="65%">
      <stop offset="0%" stop-color="#ffffff" />
      <stop offset="70%" stop-color="#e2e8f0" />
      <stop offset="100%" stop-color="#94a3b8" />
    </radialGradient>
  </defs>
  <rect width="512" height="512" rx="128" fill="#020617" />
  <rect x="24" y="24" width="464" height="464" rx="104" fill="none" stroke="url(#bgGrad)" stroke-width="8" opacity="0.6" />
  <circle cx="256" cy="256" r="160" fill="url(#ballGrad)" />
  <!-- Soccer ball pentagon pattern -->
  <polygon points="256,160 298,190 282,240 230,240 214,190" fill="#0f172a" />
  <polygon points="256,352 298,322 282,272 230,272 214,322" fill="#0f172a" />
  <polygon points="135,225 155,270 195,255 195,210 155,195" fill="#0f172a" />
  <polygon points="377,225 357,270 317,255 317,210 357,195" fill="#0f172a" />
  <!-- Glowing AI node dots -->
  <circle cx="256" cy="70" r="14" fill="#34d399" />
  <circle cx="70" cy="256" r="14" fill="#38bdf8" />
  <circle cx="442" cy="256" r="14" fill="#34d399" />
  <circle cx="256" cy="442" r="14" fill="#818cf8" />
</svg>
